# xmcd
#
# Track frame offsets:
#	150
#	14775
#	29925
#	45150
#	59925
#	74925
#	89325
#	103875
#	117975
#	131925
#	146325
#	161100
#	176175
#	190800
#	205725
#	220500
#	236100
#	250575
#
# Disc length: 3532 seconds
#
# Revision: 0
# Processed by: cddbd v1.5.2PL0 Copyright (c) Steve Scherf et al.
# Submitted via: EasyCDDAExtractor 16.0.8.2
#
DISCID=220dca12
DTITLE=Συλλογικός δίσκος - Αρχ. Ελλ. Δ.-Συνθ. ρεμπ. 03-Γκόγκος Δημ. 1
DYEAR=1999
DGENRE=Ρεμπέτικη
TTITLE0=Γκόγκος Δημήτρης ή Μπαγιαντέρας - Ήτανε άνοιξις [ζεϊμπέκικο 1934, Δ. Γ
TTITLE0=κόγκου]
TTITLE1=Παγιουμτζής Στράτος-Περπινιάδης Στ. - Θα κλέψω μιά μελαχροινή [1937, Δ
TTITLE1=Γκόγκου]
TTITLE2=Παγιουμτζής Στράτος-Περπινιάδης Στ. - Για μιά κουτσικαργιώτισσα [1937,
TTITLE2=Ε. Παγιουμτζή-Δ. Γκόγκου]
TTITLE3=Παγιουμτζής Στράτος-Χρυσίνης Στέλιος - Με ξέχασες [1937, Ε. Παγιουμτζή
TTITLE3=Δ. Γκόγκου]
TTITLE4=Γκόγκος Δημήτρης-Σαγιάς Γερ. - Το μαναβάκι [1940, Δ. Αρμπατζόγλου-Π. Τ
TTITLE4=ούντα]
TTITLE5=Παγιουμτζής Στράτος - Γυρνώ σαν νυχτερίδα [1940, Δ. Γκόγκου]
TTITLE6=Γκόγκος Δημήτρης-Χιώτης Μανώλης - Το πέρασμα [1940, Δ. Γκόγκου]
TTITLE7=Περπινιάδης Στελλάκης - Θέλω να σ' ανταμώσω (Ξαβεριώτισσα) [1939, Δ. Γ
TTITLE7=κόγκου]
TTITLE8=Περπινιάδης Στελλάκης - Η μικρή απ' το Πασαλιμάνι [1939, Δ. Γκόγκου]
TTITLE9=Γκόγκος Δημήτρης-Χιώτης Μανώλης - Το τραγούδι της αγάπης [1940, Δ. Αρμ
TTITLE9=πατζόγλου-Δ. Γκόγκου]
TTITLE10=Γκόγκος Δημήτρης-Χιώτης Μανώλης - Μ' έχεις μαγεμένο [1940, Δ. Γκόγκου
TTITLE10=]
TTITLE11=Γκόγκος Δημήτρης ή Μπαγιαντέρας - Το αλανάκι [1940, Δ. Αρμπατζόγλου]
TTITLE12=Γκόγκος Δημήτρης-Χιώτης Μανώλης - Μάτια γλυκά και γαλανά [1940, Δ. Γκ
TTITLE12=όγκου]
TTITLE13=Γκόγκος Δημήτρης-Χρυσίνης Στ. - Του Κυριάκου το γαϊδούρι[χασ.1946, Δ.
TTITLE13=Αρμπατζόγλου-Γκόγκου]
TTITLE14=Γκόγκος Δημήτρης-Χρυσίνης Στέλιος - Η κοτούλα [ζεϊμπέκικο 1946, Δ. Αρ
TTITLE14=μπατζόγλου-Δ. Γκόγκου]
TTITLE15=Περπινιάδης Στελλάκης-Γεωργακοπούλου Ι. - Μιά τράτα κουλουριώτικια [σ
TTITLE15=υρτός 1947, Δ. Γκόγκου]
TTITLE16=Περπινιάδης Στελλάκης-Γεωργακοπούλου Ι. - Κι αν χωρίσαμε δεν φταίω [1
TTITLE16=947, Δ. Αρμπατζόγλου-Γκόγκου]
TTITLE17=Γκόγκος Δημήτρης-Γαλανάκη Δ. - Έλα να μπερμπαντέψεις [χασ.1947, Δ. Αρ
TTITLE17=μπατζόγλου-Γκόγκου]
EXTD=
EXTT0=
EXTT1=
EXTT2=
EXTT3=
EXTT4=
EXTT5=
EXTT6=
EXTT7=
EXTT8=
EXTT9=
EXTT10=
EXTT11=
EXTT12=
EXTT13=
EXTT14=
EXTT15=
EXTT16=
EXTT17=
PLAYORDER=
